<svg version="1.1" id="Calque_2" xmlns="http://www.w3.org/2000/svg" x="0" y="0" viewBox="0 0 140 60" xml:space="preserve"><style>.st0{fill:#c9a651}</style><path d="M96.2 25c0-3.7-1.1-6.6-3.4-8.6-3-2.7-6.9-2.6-7.9-2.5h-4.7c-1.6 0-2.9 1.3-2.9 2.9v18.3c0 6.9 7.6 8.7 11.6 8.7h3.9c1.6 0 2.9-1.3 2.9-2.9S94.4 38 92.8 38H89c-.1 0-5.8-.2-5.8-2.9h2.9c4 0 10.1-2.7 10.1-10.1zm-13-5.3h2.2s2.2-.2 3.5 1c.9.8 1.4 2.3 1.4 4.3 0 3.8-3 4.3-4.3 4.3h-2.9v-9.6zm32.9-5.8c-1.1-.1-10.8-.5-15.7 4.1-1.8 1.7-2.8 4-2.8 6.5 0 10.1 13.5 17.2 15.1 18-.3.9-.7 1.6-1.3 2.1-1.7 1.4-4.6 1.3-5.6 1.1-1.6-.3-3.1.8-3.3 2.3-.3 1.6.8 3.1 2.3 3.4.2 0 1.1.2 2.4.2 2.1 0 5.3-.4 7.9-2.6 2.5-2.1 3.7-5.1 3.7-9.1V16.8c0-1.6-1.2-2.8-2.7-2.9zM113 36c-3.8-2.4-9.6-7-9.6-11.5 0-1 .3-1.7 1-2.3 1.9-1.8 5.8-2.3 8.6-2.5V36zm24.1-22.1c-5.7 0-10 1.6-12.9 4.7-3.6 3.9-3.5 8.8-3.5 9.8v11.5c0 1.6 1.3 2.9 2.9 2.9 1.6 0 2.9-1.3 2.9-2.9v-7.6h5.8c1.6 0 2.9-1.3 2.9-2.9 0-1.6-1.3-2.9-2.9-2.9h-5.7c.2-1.1.7-2.7 1.9-4 1.8-1.9 4.7-2.9 8.6-2.9 1.6 0 2.9-1.3 2.9-2.9s-1.3-2.8-2.9-2.8z"/><path class="st0" d="M61.1 34.1c0-14.6-11.8-26.4-26.4-26.4S8.2 19.5 8.2 34.1c0 8.4 3.9 15.9 10 20.7-2.6-3.2-4.1-7.2-4.1-11.6 0-10.2 8.3-18.4 18.4-18.4S50.9 33 50.9 43.2c0 7.5-4.5 13.9-10.9 16.8 12.1-2.5 21.1-13.1 21.1-25.9z"/><circle class="st0" cx="32.7" cy="43.5" r="3.2"/><circle class="st0" cx="32.7" cy="50.4" r="2.1"/><circle class="st0" cx="25.3" cy="43.5" r="2.1"/><circle class="st0" cx="39.7" cy="43.5" r="2.1"/><circle class="st0" cx="32.7" cy="56.3" r="1.1"/><circle class="st0" cx="25.3" cy="49.9" r="1.6"/><circle class="st0" cx="25.3" cy="36" r="1.6"/><circle class="st0" cx="39.2" cy="36" r="1.6"/><circle class="st0" cx="39.2" cy="49.9" r="1.6"/><circle class="st0" cx="39.2" cy="54.7" r="1.1"/><circle class="st0" cx="39.2" cy="31.2" r="1.1"/><circle class="st0" cx="25.3" cy="31.7" r="1.1"/><circle class="st0" cx="20.5" cy="36.5" r="1.1"/><circle class="st0" cx="18.9" cy="43.5" r="1.1"/><circle class="st0" cx="20.5" cy="49.9" r="1.1"/><circle class="st0" cx="25.3" cy="54.7" r="1.1"/><circle class="st0" cx="44" cy="49.9" r="1.1"/><circle class="st0" cx="45.6" cy="42.9" r="1.1"/><circle class="st0" cx="43.4" cy="36.5" r="1.1"/><circle class="st0" cx="32.7" cy="36" r="2.1"/><circle class="st0" cx="32.7" cy="30.1" r="1.1"/><path d="M9 48.1c.1-.1.1-.1.2-.1h.2l.1.1 1.6 2.6c.1.1.1.2.1.3 0 .1-.1.2-.2.2L6.5 54h-.3c-.1 0-.2-.1-.2-.2l-1.6-2.6V51l.1-.1s.1-.1.2-.1.1-.1.2-.1h.3l1.2 1.8 1.3-.8-1-1.5V50l.1-.1s.1-.1.2-.1.1-.1.2-.1h.2l.1.1 1 1.5 1.4-.9-1.2-1.8v-.2l.1-.1c0-.1.1-.2.2-.2zm-2.8-5.6c.1 0 .1 0 .2-.1h.3s.1.1.2.1l.3.3c.1.1.2.3.3.4.1.2.2.3.3.5.1.5.2.9.2 1.2 0 .4-.1.7-.2 1-.2.3-.4.6-.7.8-.3.3-.7.5-1.2.6-.5.2-.9.3-1.4.3-.4 0-.8 0-1.1-.2-.3-.1-.6-.3-.9-.6-.3-.3-.5-.6-.6-1-.1-.2-.1-.3-.1-.5s0-.3-.1-.4v-.4c0-.1 0-.2.1-.3 0-.1 0-.1.1-.1 0 0 .1 0 .1-.1 0 0 .1 0 .1-.1.1 0 .1-.1.2-.1s.2-.1.2-.1h.3l.1.1v.2c0 .1 0 .2-.1.3v.4c0 .2 0 .4.1.6.1.2.2.4.4.6.2.1.3.2.6.3.2.1.5.1.7 0 .3 0 .6-.1.9-.2.3-.1.6-.3.8-.4.2-.2.4-.3.5-.5.1-.2.2-.4.2-.6 0-.2 0-.4-.1-.7-.1-.2-.2-.4-.3-.5l-.3-.3c-.3.1-.4 0-.4 0l-.1-.1v-.1l.1-.1.1-.1s.1-.1.2-.1zm-3.4-7c.5-.1 1-.1 1.4 0 .4.1.8.2 1.1.4.3.2.6.5.7.8.2.3.3.8.4 1.2.1.5 0 .9 0 1.3-.1.4-.2.7-.5.9-.2.3-.5.5-.9.6-.4.2-.8.3-1.4.3-.5.1-.9.1-1.3 0s-.8-.2-1.1-.4c-.3-.2-.6-.5-.7-.8s-.3-.8-.4-1.2c-.1-.5 0-.9 0-1.2.1-.4.2-.7.4-.9.2-.3.5-.5.9-.7.4-.1.9-.3 1.4-.3zm.2 1.3c-.3 0-.6.1-.9.2-.3.1-.5.2-.6.3s-.3.3-.4.5c-.1.2-.1.5-.1.8 0 .3.1.5.3.7.1.2.3.3.5.4.2.1.4.2.7.2h.8c.3 0 .6-.1.9-.2.3-.1.5-.2.6-.3.2-.1.3-.3.4-.5.1-.2.1-.5.1-.8 0-.3-.1-.5-.3-.7 0-.2-.2-.4-.4-.5-.2-.1-.4-.2-.7-.2s-.6 0-.9.1zm2.8-7.1h.4s.1 0 .1.1v.1L6 32.7c0 .1 0 .2-.1.3-.1.1-.2.1-.3.1l-5.5-.5H0s0-.1-.1-.1v-.8c0-.1 0-.1.1-.2 0 0 0-.1.1-.1h.1l4.9.5.2-1.9v-.1l.1-.1h.2c.1-.1.1-.1.2-.1zm1.4-5.2c.1 0 .2.1.2.1.1 0 .1 0 .1.1l.1.1v.1l-.9 2.9c0 .1-.1.2-.2.2h-.2l-5.1-1.5c-.1 0-.2-.1-.3-.2V26l.9-2.9V23h.3c.1 0 .1 0 .2.1.1 0 .2 0 .2.1.1 0 .1 0 .1.1l.1.1v.1l-.6 2.1 1.4.4.5-1.8v-.1h.2c.1 0 .1 0 .2.1.1 0 .2.1.2.1.1 0 .1 0 .1.1 0 0 0 .1.1.1v.1l-.5 1.8 1.6.5.6-2.1v-.1h.3c.3-.2.4-.2.4-.2zm3.2-10.6c.5.3.8.7 1 1 .2.3.4.7.4 1.1 0 .4 0 .7-.1 1.1-.1.4-.4.8-.7 1.2l-.8 1.2-.2.2c-.1.1-.2 0-.3-.1l-4.3-3.1c-.1-.1-.2-.2-.2-.3 0-.1 0-.2.1-.3l.9-1.3c.3-.4.6-.8 1-1 .3-.2.7-.4 1-.4s.7 0 1.1.1c.3.2.7.4 1.1.6zM9.7 15c-.2-.2-.5-.3-.7-.4s-.5-.1-.7-.1c-.2 0-.5.1-.7.2-.2.1-.4.3-.7.7l-.4.5 3.4 2.4.4-.5c.2-.3.3-.5.4-.8.1-.2.1-.5 0-.7-.1-.2-.2-.5-.3-.7-.2-.2-.4-.4-.7-.6zm6.9-5.5c.2.3.4.6.5.9.1.3.1.6.1.9 0 .3-.1.6-.3.9-.2.3-.4.6-.7.8l-.9.6c-.3.1-.6.2-.9.2-.3 0-.6-.1-.8-.2-.3-.2-.5-.4-.8-.7l-2.4-2.8v-.2s.1-.1.1-.2l.2-.2c.2-.3.3-.3.3-.4.1 0 .1-.1.2-.1h.2l2.3 2.7c.2.2.3.3.5.4.2.1.3.2.5.2s.3 0 .5-.1.3-.1.5-.3c.1-.1.3-.3.3-.4.1-.1.1-.3.1-.5s0-.3-.1-.5-.2-.3-.3-.5l-2.4-2.8V7s.1-.1.1-.2l.2-.2c.1-.1.2-.1.2-.2.1 0 .1-.1.2-.1h.2l2.4 3.2zM25.7 2c0 .1.1.2.1.2v.3h-.3c-.1 0-.2 0-.4-.1h-.6c-.2 0-.5.1-.7.2-.3.1-.5.2-.7.4-.2.2-.3.4-.4.6-.1.2-.1.5-.1.8 0 .3.1.6.2.9.1.3.3.6.4.8.2.2.4.4.6.5.2.1.4.2.7.2.3 0 .5 0 .8-.1.1 0 .3-.1.4-.2l.3-.3-.5-1.3-1.1.4c-.1 0-.1 0-.2-.1s-.1-.2-.2-.3c0-.1 0-.2-.1-.2v-.2h.1l1.9-.7h.2l.1.1.1.1.8 2.3v.2c0 .1-.1.2-.1.2 0 .1-.1.2-.2.3-.1.1-.3.2-.4.3-.1.1-.3.2-.4.2-.1.1-.3.1-.5.2-.5.2-.9.2-1.3.2s-.8-.1-1.1-.2c-.3-.2-.6-.4-.9-.7-.3-.3-.5-.7-.6-1.2-.2-.5-.2-.9-.2-1.3s.1-.8.3-1.2c.2-.4.4-.7.7-.9.3-.3.7-.5 1.2-.6.2-.1.5-.1.7-.2.2 0 .4-.1.6-.1h.4c.1 0 .2 0 .3.1.1 0 .1.1.1.1-.1.1 0 .2 0 .3zm9 .8c0 .5 0 1-.1 1.4s-.2.8-.4 1.1c-.2.3-.5.5-.9.7-.4.2-.8.3-1.2.3-.5 0-.9 0-1.2-.1-.4-.1-.7-.3-.9-.5-.3-.2-.5-.5-.6-.9-.3-.4-.4-.8-.4-1.4 0-.5 0-.9.1-1.3s.2-.8.5-1c.2-.3.5-.5.9-.7.4-.2.8-.3 1.2-.3.5 0 .9 0 1.2.1.4.1.7.3.9.5.3.2.5.5.6.9.2.3.3.7.3 1.2zm-1.3.2c0-.3-.1-.6-.1-.9-.1-.3-.2-.5-.3-.6-.1-.2-.3-.3-.5-.4-.3-.1-.5-.1-.8-.1-.3 0-.6.1-.7.2-.2.1-.3.3-.5.5-.1.2-.2.4-.2.7v.8c0 .3.1.6.2.9.1.3.2.5.3.7.1.2.2.3.4.4.2.1.5.1.8.1.3 0 .6-.1.7-.2.2-.1.3-.3.5-.5.1-.2.2-.4.2-.7V3zm6.9 3v.2c0 .1 0 .1-.1.2s0 .1-.1.1H40l-2.8-.4c-.1 0-.2-.1-.2-.1v-.3l.7-5.5V.1h.6c.1 0 .2 0 .3.1.1 0 .1 0 .2.1 0 0 .1 0 .1.1v.1l-.6 4.8 1.9.2h.1V6zm6.6-3.3c0 .1-.1.2-.1.2 0 .1-.1.1-.1.1l-.1.1h-.1l-1.9-.6-.5 1.6 1.8.6h.1v.5c0 .1-.1.2-.1.2 0 .1-.1.1-.1.1l-.1.1h-.1L43.9 5l-.7 2.2s0 .1-.1.1h-.3c-.1 0-.2 0-.3-.1-.1 0-.2-.1-.3-.1 0-.1-.1-.1-.1-.1-.1 0-.1-.1-.1-.1v-.1l1.7-5.2c0-.1.1-.2.2-.3h.3l2.7.9h.1v.3c-.1 0-.1.1-.1.2zm9 5.1c-.1.1-.1.1-.1.2l-.1.1h-.2L53.8 7l-.9 1.3 1.5 1.1v.2s0 .1-.1.1c0 .1-.1.1-.1.2-.1.1-.1.1-.1.2l-.1.1h-.2l-1.5-1.1L51 11l-.1.1c-.1.1-.1 0-.1 0s-.1 0-.2-.1-.2-.1-.3-.2c-.1-.1-.2-.1-.2-.2l-.1-.1v-.2l3.2-4.5c.1-.1.2-.2.3-.2.1 0 .2 0 .3.1L56 7.3v.2s0 .1-.1.2v.1zm1.5 9c-.1 0-.1 0 0 0-.1.1-.1 0-.2 0 0 0-.1-.1-.2-.1-.1-.1-.2-.1-.3-.3l-.2-.2c0-.1-.1-.1-.1-.2v-.2l.6-1.3c.1-.2.1-.3.2-.4 0-.1.1-.2.1-.4v-.3c0-.1-.1-.2-.2-.3l-.3-.3-1.7 1.6h-.2s-.1-.1-.2-.1-.1-.1-.2-.2-.1-.2-.2-.2c0-.1-.1-.1-.1-.2v-.2l4-3.8c.1-.1.2-.1.3-.1.1 0 .2.1.2.1l1.1 1.1.3.3c.1.1.1.2.2.2l.3.6c.1.2.1.4.1.6s-.1.4-.1.6-.2.4-.4.5c-.1.1-.3.2-.5.3-.2.1-.3.1-.5.1h-.5c-.2 0-.3-.1-.5-.2 0 .1 0 .2.1.3v.3c0 .1 0 .2-.1.4 0 .1-.1.3-.2.4l-.5 1.2c-.1.1-.1.2-.1.2v.2zm1.9-4c.1-.1.2-.3.3-.4 0-.2 0-.3-.1-.5 0-.1-.1-.1-.1-.2s-.1-.1-.2-.3l-.5-.4-1.3 1.2.4.5c.1.1.2.2.4.3.1.1.2.1.4.1h.3c.2-.1.3-.2.4-.3zm1.9 9.7c-.1.1-.1.2-.2.2s-.1.1-.1 0l-.1-.1c-.1-.1-.1-.2-.2-.3-.1-.1-.1-.2-.2-.3 0-.1-.1-.1-.1-.2v-.1s0-.1.1-.1l.9-1-1.1-2-1.2.3h-.1s-.1 0-.1-.1-.1-.1-.1-.1c0-.1-.1-.2-.2-.3-.1-.1-.1-.2-.2-.3v-.2l.1-.1s.1 0 .3-.1l5.6-1.1h.1s.1 0 .1.1c0 0 .1.1.1.2.1.1.1.2.2.3.1.2.2.3.2.4.1.1.1.2.1.2v.2s0 .1-.1.1l-3.8 4.4zm2.5-4.7l-2.7.6.9 1.5 1.8-2.1zM63.2 29H63c-.1 0-.1 0-.2-.1l-.1-.1c0-.1-.1-.1-.1-.2l-.1-.5v-.3c0-.1 0-.2.1-.2 0-.1.1-.2.2-.3l.3-.3 2.3-2.2c.1-.1.3-.3.5-.4s.3-.3.5-.4c-.2.1-.4.1-.6.2-.2.1-.4.1-.7.2l-3.1.9h-.1s-.1 0-.1-.1c0 0-.1-.1-.1-.2s-.1-.2-.1-.3c0-.1-.1-.2-.1-.3v-.3h.1l5.3-1.5h.4c.1.1.2.2.2.3l.2.6c0 .1 0 .2.1.3v.2c0 .1-.1.2-.1.2-.1.1-.1.2-.2.3l-1.8 1.7-.3.3-.3.3-.3.3-.3.3c.2-.1.4-.1.7-.2.2-.1.4-.1.7-.2l2.7-.8h.1s.1 0 .1.1c0 0 .1.1.1.2s.1.2.1.3c0 .1 0 .2.1.3v.3H69L63.2 29zm1 6.5h-.4s-.1 0-.1-.1c0 0-.1-.1-.1-.2-.1-.1-.1-.2-.2-.4s-.1-.3-.1-.5-.1-.4-.1-.6c0-.4 0-.8.1-1.1.1-.3.3-.6.5-.9.2-.2.6-.4.9-.6.4-.1.8-.2 1.3-.2s1 0 1.4.2c.4.1.7.3 1 .5.3.2.5.5.7.9.2.3.2.7.3 1.1v.5c0 .2-.1.3-.1.4 0 .1-.1.3-.1.4-.1.1-.2.2-.2.3l-.1.1H68s-.1 0-.1-.1v-.1s0-.1.1-.2.1-.2.2-.3c.1-.1.1-.3.2-.4 0-.2.1-.3.1-.6 0-.2-.1-.5-.2-.6-.1-.2-.3-.3-.4-.5-.2-.1-.4-.2-.7-.3-.3-.1-.6-.1-.9-.1-.4 0-.7.1-.9.1-.3.1-.5.2-.6.3-.2.1-.3.3-.4.5-.1.2-.1.4-.1.7 0 .2 0 .4.1.6.1.2.1.3.2.4.1.1.1.2.2.3.1.1.1.1.1.2v.1h-.3c-.2.2-.3.2-.4.2zm-1.5 6.9h-.3c-.1 0-.1 0-.1-.1v-.2c0-.1 0-.2.1-.4 0-.2.1-.3.1-.4 0-.1 0-.2.1-.2 0 0 0-.1.1-.1h.1l1.3-.2.4-2.2-1.1-.6s-.1 0-.1-.1c0 0 0-.1-.1-.1s0-.1 0-.2 0-.2.1-.3c0-.1.1-.3.1-.3 0-.1.1-.1.1-.2h.2c.1 0 .1.1.2.1l5 2.8.1.1s0 .1.1.1v.2c0 .1 0 .2-.1.4 0 .2-.1.3-.1.4 0 .1-.1.2-.1.2 0 .1-.1.1-.1.1h-.2l-5.8 1.2zm4.9-2l-2.4-1.3-.3 1.7 2.7-.4zm-6.4 4.8c-.1-.1-.1-.1-.1-.2v-.2c0-.1.1-.2.1-.3 0-.1.1-.2.1-.3 0-.1.1-.1.1-.2l.1-.1h.1l5.3 2.1s.1 0 .1.1v.3c0 .1-.1.2-.1.3 0 .1-.1.2-.1.3 0 .1-.1.1-.1.2l-.1.1h-.1l-5.3-2.1zm-1.4 6.1c-.3-.2-.5-.4-.6-.6-.1-.2-.2-.5-.3-.7 0-.3 0-.5.1-.8.1-.3.2-.5.3-.8.1-.2.2-.3.3-.5.1-.1.2-.3.3-.3.1-.1.2-.2.3-.2.1-.1.2-.1.2-.1h.2c.1 0 .2.1.3.1.1 0 .2.1.2.1.1 0 .1.1.1.1v.2s-.1.1-.2.1-.2.1-.3.2c-.1.1-.2.2-.4.3-.1.1-.3.3-.4.5-.1.1-.1.3-.2.4v.3c0 .1.1.2.1.3.1.1.1.2.2.2.1.1.2.1.4.1s.2-.1.4-.1c.1-.1.3-.1.4-.2.1-.1.3-.2.4-.3.1-.1.3-.2.5-.3.2-.1.3-.1.5-.2h.6c.2 0 .4.1.6.2.3.1.4.3.6.5.1.2.2.4.3.7v.7c-.1.3-.2.5-.3.7-.1.1-.2.2-.2.4l-.3.3c-.1.1-.2.2-.3.2-.1.1-.2.1-.2.1h-.2s-.1 0-.1-.1c0 0-.1-.1-.2-.1s-.1-.1-.2-.1-.1-.1-.1-.1 0-.1-.1-.1v-.1l.1-.1c.1 0 .2-.1.3-.2l.3-.3c.1-.1.2-.2.3-.4.1-.1.1-.2.1-.3v-.3c0-.1-.1-.2-.1-.2l-.2-.2c-.1-.1-.2-.1-.4-.1-.1 0-.2.1-.4.1-.1.1-.3.2-.4.3-.1.1-.3.2-.4.3-.1.1-.3.2-.5.3-.2.1-.3.1-.5.2s-.4 0-.6 0c.2.1 0 0-.3-.1z"/></svg>