<?xml version="1.0" encoding="utf-8"?>
<svg xmlns="http://www.w3.org/2000/svg" viewBox="0 0 500.03 272.62">
  <defs>
    <style>.cls-1{fill:#98c5e5;}</style>
  </defs>
  <title>Fichier 1</title>
  <g id="Calque_2" data-name="Calque 2">
    <g id="Calque_1-2" data-name="Calque 1">
      <path class="cls-1" d="M498.11,58.9a16.13,16.13,0,0,0-3.8-7.24A8.44,8.44,0,0,0,488,48.93a8.25,8.25,0,0,0-8.42,8.26A8.26,8.26,0,0,0,482,63a7.43,7.43,0,0,0,5.41,2.41,8.66,8.66,0,0,0,4.91-1.29,31.85,31.85,0,0,1,2,10.83q0,9.22-4.88,15.12T477.73,96a8.14,8.14,0,0,1-5.36-1.77,6.31,6.31,0,0,1-1.68-2.34,6.51,6.51,0,0,1-.47-2.86V56.54q0-2.79-3-4.66A14.34,14.34,0,0,0,459.56,50a25.32,25.32,0,0,0-9.44,1.93,22.71,22.71,0,0,0-7.88,5.15l2.9,3.32a16.64,16.64,0,0,1,9-5.25v31.6q0,8.58,4.77,13.25a16,16,0,0,0,11.64,4.66q17.79,0,24.44-18.44-4.38,17.16-12,24.77t-19.64,7.63a46,46,0,0,1-4.83-.28c-3.26-.35-8-.32-11.31-.31-40.91.15-290.41.81-309.2.81-20.47,0-120.79,140.45-134.85,140.71-5.25.1-2.8,4.36-.92,3.69,4.81-1.73,9.5-3.78,12.87-7.33,21.9-23.1,105-122.82,126-125.64,15-2,267.46,6.09,325,3.33q9.06-.48,17.83-10a57.69,57.69,0,0,0,8.09-11.9,67.53,67.53,0,0,0,5.79-16.4,84.37,84.37,0,0,0,2.2-19,71.94,71.94,0,0,0-1.91-17.35Z"/>
      <path d="M117.29,34.45V30.17h23.59q26,0,33,12a22.92,22.92,0,0,1,2.68,11.47q0,15.66-17.8,21a13.6,13.6,0,0,1,9,9.33L171,94.75a8.08,8.08,0,0,0,1.93,3.75,5.78,5.78,0,0,0,4,1.07c1.86,0,4-1,6.54-3.11L185.4,99q-8.58,7.83-18.23,7.82a15.84,15.84,0,0,1-7.93-1.71,9.74,9.74,0,0,1-4.29-6l-5-16.51a7,7,0,0,0-3-4.28q-2-1.19-7.08-1.29V101h8.48v4.29H117.29V101h6.43V34.45Zm23.59,0H139.8v38.3h1.08a20.23,20.23,0,0,0,14-5q5.58-5,5.58-14.1T154.88,39.5a20.21,20.21,0,0,0-14-5Z"/>
      <path d="M208.35,75.14q3.79-4.67,3.8-9.43c0-3.18-.69-5.63-2.09-7.35s-3.5-2.57-6.32-2.57-5.53,2-8.1,6-3.86,9.37-3.86,16.09S193,90,195.43,94.07s5.89,6.11,10.4,6.11a22.5,22.5,0,0,0,17.47-8l3,1.93a27.43,27.43,0,0,1-9.64,9.27,26.41,26.41,0,0,1-13.51,3.48q-12.77,0-20.37-8.41a29.25,29.25,0,0,1-7.62-20.32,27.17,27.17,0,0,1,8.1-20q8.1-8.1,22.46-8.1,9.43,0,14.8,4.4a13.83,13.83,0,0,1,5.36,11.15q0,6.75-5.95,12.49t-15.69,5.68a26.84,26.84,0,0,1-6.43-.75l-.22-2.57Q204.57,79.8,208.35,75.14Z"/>
      <path d="M229.43,51.61A25.66,25.66,0,0,1,245.35,57a24.43,24.43,0,0,1,8.36-5.41,32.82,32.82,0,0,1,11-1.56,14.84,14.84,0,0,1,10.94,4.23q4.23,4.26,4.23,11.53V93.31a6.91,6.91,0,0,0,1.4,4.56,5.23,5.23,0,0,0,4.29,1.66c1.93,0,4.14-1,6.64-3.11L294.14,99q-8.56,7.83-17.15,7.82-13.19,0-13.19-15.76V63.51a6.49,6.49,0,0,0-.43-2.79,6.69,6.69,0,0,0-1.57-2.36,8.25,8.25,0,0,0-5.63-1.82,11.17,11.17,0,0,0-7.08,2.89,9.32,9.32,0,0,0-3.48,7.51v38.28H229.43V55.9a21.72,21.72,0,0,0-8.57,1.61l-1.51-4a26,26,0,0,1,10.08-1.9Z"/>
      <path d="M280,57.51v-4.4h8.79V37.67h16.08V53.11H317v4.4H304.91v35.8a6.91,6.91,0,0,0,1.4,4.56,5.22,5.22,0,0,0,1.95,1.33,5.15,5.15,0,0,0,2.33.33c1.93,0,4.15-1,6.65-3.11L319.17,99q-8.58,7.83-17.15,7.82-13.17,0-13.19-15.76V57.51Z"/>
      <path class="cls-1" d="M328.82,34.45V30.17h25.73q33.57,0,33.56,20.37,0,14.16-16.62,18.44v.77q19.86,3,19.86,16.27,0,9.66-8.8,14.42t-24.76,4.78h-29v-4.29h6.43V34.45Zm25.62,0h-3.09V67.58h3.11a18,18,0,0,0,12.6-4.5q5-4.5,5-12.33t-5-12.06a18.82,18.82,0,0,0-12.62-4.24Zm2.25,37.21h-5.34v29.27h5.36a20.77,20.77,0,0,0,12.87-3.86,13.85,13.85,0,0,0,0-21.55q-5.16-3.87-12.89-3.86Z"/>
      <path class="cls-1" d="M410.52,56.54V93.31a6.53,6.53,0,0,0,2,5.15,8.22,8.22,0,0,0,5.69,1.82,10.64,10.64,0,0,0,7.07-3,9.82,9.82,0,0,0,3.43-7.82V51.61H444.8v41.7a6.9,6.9,0,0,0,1.39,4.56,5.23,5.23,0,0,0,4.29,1.66c1.93,0,3.53-.47,6-2.55l1.93,2.58c-5.72,5.21-10.93,7.26-16.86,7.26s-9.86-2.64-11.79-7.93a24.56,24.56,0,0,1-8.64,6.17,30.89,30.89,0,0,1-11.36,1.76,15.11,15.11,0,0,1-11.15-4.23q-4.23-4.23-4.24-11.53V55.15a16.64,16.64,0,0,0-9,5.25l-2.9-3.32a22.71,22.71,0,0,1,7.88-5.15A25.32,25.32,0,0,1,399.79,50a14.37,14.37,0,0,1,7.67,1.88Q410.52,53.76,410.52,56.54Z"/>
      <path d="M3.12,76.25a2.13,2.13,0,0,1,1-1A2.18,2.18,0,0,1,5.46,75C6.23,75,7,75,7.93,75V44.52c0-2.14.48-2.6,2.58-2.59l75.5.14c5,0,9.93-.1,14.89-.15,2.45,0,2.83.36,2.83,2.86V75h2.62a1.89,1.89,0,0,1,.71.07,1.7,1.7,0,0,1,.63.35,1.69,1.69,0,0,1,.61,1.25,2,2,0,0,1-.14.73,1.92,1.92,0,0,1-.42.6,1.8,1.8,0,0,1-.63.39,1.65,1.65,0,0,1-.73.11H67.56a4.3,4.3,0,0,1-1.51-.19A1.7,1.7,0,0,1,66.5,75c.89-.06,1.77,0,2.74,0,0-.42.06-.75.06-1.08V61.82a13.55,13.55,0,0,0-27-1.46c-.37,4.76-.08,9.57-.09,14.37l.14.27h2.39a1.78,1.78,0,0,1,.69.1,1.6,1.6,0,0,1,.58.37,1.64,1.64,0,0,1,.4.57,1.69,1.69,0,0,1,.12.67,1.71,1.71,0,0,1-.12.68A1.84,1.84,0,0,1,46,78a1.7,1.7,0,0,1-.57.39,1.79,1.79,0,0,1-.68.13H5.65a2.51,2.51,0,0,1-2.49-1.23ZM34,57.25V48.63c0-1.5-.63-2.12-2.12-2.12H18c-1.56,0-2.18.62-2.18,2.18V65.75c0,1.56.61,2.18,2.18,2.19H31.77c1.64,0,2.23-.6,2.23-2.24,0-2.8,0-5.64,0-8.48Zm61.59,0v-8.5c0-1.64-.6-2.26-2.21-2.26H79.64c-1.58,0-2.2.59-2.2,2.15V65.88c0,1.49.63,2.1,2.15,2.1H93.44c1.56,0,2.15-.63,2.16-2.2Z"/>
      <path d="M3.12,26.12a2.85,2.85,0,0,1,1.13-.9A2.89,2.89,0,0,1,5.67,25H106.56a1.71,1.71,0,0,1,1.5.78,1.69,1.69,0,0,1,.26.82,1.56,1.56,0,0,1-.18.85c-1.5,3.38-3,6.74-4.62,10.07-.23.48-1,.76-1.52,1a2.41,2.41,0,0,1-1,0H10.69a2.86,2.86,0,0,1-3-1.89c-1.43-3.17-3-6.27-4.54-9.4Z"/>
      <path d="M3.12,1.26a2.36,2.36,0,0,1,1-1A2.34,2.34,0,0,1,5.49,0H106c1.78,0,2.35.57,2.35,2.32v7.81c0,1.49-.63,2.12-2.11,2.16H5.7a2.6,2.6,0,0,1-1.48-.22,2.67,2.67,0,0,1-1.13-1Z"/>
      <path d="M3.12,103A2.18,2.18,0,0,1,4,102a2.23,2.23,0,0,1,1.26-.31H44.35c1.48,0,2.44.88,2.08,2.07-.17.54-.78,1-1.19,1.43H3.12Z"/>
      <path d="M66.2,105.22a1.82,1.82,0,0,1-1-.88A1.86,1.86,0,0,1,65,103c.31-1.07,1.17-1.28,2.19-1.28H106c1,0,1.87.19,2.21,1.25s-.31,1.73-1.14,2.26Z"/>
      <path d="M86.44,82h15c1.7,0,2.29.57,2.29,2.27v11.6c0,1.75-.6,2.34-2.35,2.34H71.69c-1.81,0-2.39-.58-2.39-2.4V84.3c0-1.75.58-2.31,2.35-2.32Z"/>
      <path d="M25.07,82H39.85c1.7,0,2.29.58,2.29,2.28V96c0,1.6-.63,2.23-2.25,2.23H10.22c-1.68,0-2.28-.6-2.28-2.3V84.2c0-1.64.6-2.21,2.24-2.21Z"/>
      <path d="M55.86,15.82h45.29c2.12,0,2.58.48,2.58,2.61v1.23a1.69,1.69,0,0,1-.12.71,1.6,1.6,0,0,1-.39.6,1.67,1.67,0,0,1-.59.4,1.75,1.75,0,0,1-.71.13H10.51a2.38,2.38,0,0,1-1.21-.11c-.49-.29-1.13-.73-1.22-1.2a7.57,7.57,0,0,1,0-3c.11-.52.84-1,1.38-1.28.31-.18.8-.05,1.21-.05Z"/>
      <path d="M19.35,57.25v-6c0-1,.41-1.34,1.36-1.33h8.51c.9,0,1.31.34,1.31,1.28v12c0,.89-.4,1.23-1.24,1.22H20.67c-1,0-1.33-.43-1.31-1.38C19.35,61.15,19.35,59.2,19.35,57.25Z"/>
      <path d="M80.94,57.25v-6c0-1,.4-1.34,1.35-1.33h8.52c.89,0,1.31.34,1.31,1.27v12c0,.89-.43,1.22-1.26,1.22H82.24c-1,0-1.32-.43-1.3-1.38C81,61.15,80.94,59.2,80.94,57.25Z"/>
      <path d="M111.57,261.23a169.91,169.91,0,0,0,13.63-22.6,1.86,1.86,0,0,1,.74-.92,1.83,1.83,0,0,1,1.14-.27q22.62.06,45.2,0a1.71,1.71,0,0,1,1.11.23,1.69,1.69,0,0,1,.72.86,176.39,176.39,0,0,0,13.66,22.71,1.73,1.73,0,0,0,.69.65,1.62,1.62,0,0,0,.92.17l-.07,3.42H111.58Zm55.32.77c-.26-1.35-.5-2.63-.76-3.92A16.71,16.71,0,0,0,143,245.91c-7.27,3.18-9.86,9.38-10.38,16.09Z"/>
      <path d="M140.9,226.89H131c2.72-8.11,5.45-16.22,8.23-24.48h20.92l8.21,24.45h-9.9V221.5a8.78,8.78,0,0,0-5.73-8.07,8.8,8.8,0,0,0-9.61,2.42,8.59,8.59,0,0,0-2.2,5.7C140.88,223.3,140.9,225.05,140.9,226.89Z"/>
      <path d="M154.92,167.27c.6,5.83,1.2,11.63,1.81,17.47h-14.1c.61-5.84,1.2-11.64,1.81-17.47Z"/>
      <path d="M174.9,230.5a30.28,30.28,0,0,1-1.54,3,1.44,1.44,0,0,1-.55.35,1.53,1.53,0,0,1-.64.09H127.3a1.49,1.49,0,0,1-1-.19,1.48,1.48,0,0,1-.64-.81c-.3-.81-.75-1.56-1.18-2.44Z"/>
      <path d="M144.42,226.87V221.5a5.25,5.25,0,0,1,8.65-3.86,5.19,5.19,0,0,1,1.79,3.4c.15,1.91,0,3.85,0,5.83Z"/>
      <path d="M136.75,195.36H162.6c-.54,1.11-1,2.16-1.59,3.17-.11.2-.55.29-.84.3h-21a1.49,1.49,0,0,1-.6-.21,1.64,1.64,0,0,1-.46-.45C137.65,197.32,137.27,196.41,136.75,195.36Z"/>
      <path d="M141.93,188.33H157.4l.67,3.4H141.35Z"/>
      <path d="M151.35,160.26v3.38H148v-3.38Z"/>
      <path d="M318,210.21v41.7a6.9,6.9,0,0,0,1.39,4.56,5.23,5.23,0,0,0,4.29,1.66c1.93,0,4.15-1,6.65-3.11l1.93,2.58q-8.58,7.81-17.16,7.82-10.17,0-12.54-9.54-5.58,9.54-16.4,9.54-12.33,0-18.77-8T261,237q0-12.36,6.92-20.42t19.35-8q9.54,0,14.69,7.61v-6Zm-37.42,10.54q-3,6-3,16.3t3,16.3q3,6,9.17,6t9.43-6.06q3.27-6,3.27-16.24t-3.27-16.3q-3.27-6.06-9.43-6.06T280.61,220.75Z"/>
      <path d="M375.5,208.6q3.21,0,3.21,6.11v37.2a6.91,6.91,0,0,0,1.4,4.56,5.25,5.25,0,0,0,2,1.33,5.15,5.15,0,0,0,2.33.33c1.92,0,4.14-1,6.64-3.11L393,257.6q-8.58,7.81-17.15,7.82-13.19,0-13.19-15.76V219.53a44.56,44.56,0,0,1-12.22,2.79,55.77,55.77,0,0,1-5.68,19.73l-4.38-1.3a52.08,52.08,0,0,0,3.22-18.12,9.26,9.26,0,0,1-6.6-2.35,7.7,7.7,0,0,1-1.89-2.65,7.81,7.81,0,0,1-.63-3.2,8.3,8.3,0,0,1,.61-3.19,8.5,8.5,0,0,1,1.8-2.71,8.31,8.31,0,0,1,2.71-1.79,8.13,8.13,0,0,1,3.19-.62,7.82,7.82,0,0,1,5.84,2.47,8.71,8.71,0,0,1,2.36,6.32h2q8.49,0,18-4.71a11.92,11.92,0,0,1,4.54-1.6Z"/>
      <path d="M414.63,208.6q10.08,0,10.08,8.68v34.63a6.9,6.9,0,0,0,1.39,4.56,5.23,5.23,0,0,0,4.29,1.66c1.93,0,4.14-1,6.65-3.11L439,257.6q-8.58,7.81-17.16,7.82-13.19,0-13.19-15.76V213.75a16.71,16.71,0,0,0-9,5.26l-2.9-3.33a22.69,22.69,0,0,1,7.88-5.14,26.56,26.56,0,0,1,10-1.94Zm-4-10.56A8.53,8.53,0,0,1,420,184.16a8.52,8.52,0,0,1-3.27,16.4,8.31,8.31,0,0,1-3.3-.62,8.4,8.4,0,0,1-2.78-1.9Z"/>
      <path d="M458.8,219a13.49,13.49,0,0,1-2.57-7.08,7.55,7.55,0,0,1,.64-3,7.67,7.67,0,0,1,1.77-2.52,8.29,8.29,0,0,1,11.69,0,7.87,7.87,0,0,1,2.41,5.74c0,2.22-1.11,4.57-3.33,7.07a65.71,65.71,0,0,1,13.51,12.6,22.76,22.76,0,0,1,4.72,14.26,17.95,17.95,0,0,1-6.11,13.68q-6.09,5.64-17.37,5.63a25.65,25.65,0,0,1-10.34-2.25,20.24,20.24,0,0,1-7.89-5.57L448.4,255a16,16,0,0,0,10.19,3.77,13.35,13.35,0,0,0,9-2.95q3.48-3,3.48-9.17,0-9.87-7.29-20.59l-16.19,20.27L444.91,244Q453,230.75,458.8,219Z"/>
      <path d="M332.29,257.6s9.13-7.4,12.44-15.55l-4.38-1.3a32.24,32.24,0,0,1-10,14.26Z"/>
      <path d="M439,257.6a124.63,124.63,0,0,0,8.57-11.26L444.86,244s-5.76,9.53-7.82,11Z"/>
      <path d="M393,257.6c10.51-9,2.37-17.16,1.43-23.82S399.62,219,399.62,219l-2.88-3.34s-6.82,8.07-6.65,14.79c.21,7.68,10.37,17.14,1,24.57"/>
      <path d="M199,200.16v-4.4H223.2q27,0,33.81,13a28.88,28.88,0,0,1,0,24.6,18.19,18.19,0,0,1-7.79,7.79q-9.66,5.16-26,5.16h-1.1v22h8.78v4.39H199v-4.39h6.59V200.16Zm24.16,0h-1.1v41.72h1.1a19.92,19.92,0,0,0,14.38-5.49q5.71-5.49,5.71-15.37t-5.71-15.37A19.92,19.92,0,0,0,223.2,200.16Z"/>
    </g>
  </g>
</svg>